<mxfile host="app.diagrams.net" modified="2023-12-20T03:28:29.944Z" agent="Mozilla/5.0 (Windows NT 10.0; Win64; x64) AppleWebKit/537.36 (KHTML, like Gecko) Chrome/120.0.0.0 Safari/537.36" etag="_-ZL7MCOZtLUmYYtD5Za" version="22.1.11" type="device">
  <diagram name="Trang-1" id="hGnqXhMsD_dsrQrOBmGM">
    <mxGraphModel dx="2141" dy="2115" grid="1" gridSize="15" guides="1" tooltips="1" connect="1" arrows="1" fold="1" page="1" pageScale="1" pageWidth="827" pageHeight="1169" math="0" shadow="0">
      <root>
        <mxCell id="0" />
        <mxCell id="1" parent="0" />
        <mxCell id="5fLzKJ9tMeXBeS_LBeBV-217" value="" style="rounded=0;whiteSpace=wrap;html=1;" parent="1" vertex="1">
          <mxGeometry x="206.5" y="922.5" width="465" height="832.5" as="geometry" />
        </mxCell>
        <mxCell id="5fLzKJ9tMeXBeS_LBeBV-4" value="Danhmucsanpham" style="swimlane;childLayout=stackLayout;horizontal=1;startSize=50;horizontalStack=0;rounded=1;fontSize=14;fontStyle=0;strokeWidth=2;resizeParent=0;resizeLast=1;shadow=0;dashed=0;align=center;arcSize=4;whiteSpace=wrap;html=1;movable=1;resizable=1;rotatable=1;deletable=1;editable=1;locked=0;connectable=1;" parent="1" vertex="1">
          <mxGeometry x="45" y="-60" width="165" height="90" as="geometry">
            <mxRectangle x="30" y="225" width="120" height="50" as="alternateBounds" />
          </mxGeometry>
        </mxCell>
        <mxCell id="5fLzKJ9tMeXBeS_LBeBV-5" value="Ma&lt;br&gt;Ten" style="align=left;strokeColor=none;fillColor=none;spacingLeft=4;fontSize=12;verticalAlign=top;resizable=1;rotatable=1;part=1;html=1;movable=1;deletable=1;editable=1;locked=0;connectable=1;" parent="5fLzKJ9tMeXBeS_LBeBV-4" vertex="1">
          <mxGeometry y="50" width="165" height="40" as="geometry" />
        </mxCell>
        <mxCell id="5fLzKJ9tMeXBeS_LBeBV-10" value="Sanpham" style="swimlane;childLayout=stackLayout;horizontal=1;startSize=50;horizontalStack=0;rounded=1;fontSize=14;fontStyle=0;strokeWidth=2;resizeParent=0;resizeLast=1;shadow=0;dashed=0;align=center;arcSize=4;whiteSpace=wrap;html=1;movable=1;resizable=1;rotatable=1;deletable=1;editable=1;locked=0;connectable=1;" parent="1" vertex="1">
          <mxGeometry x="323.62" y="-75" width="135" height="180" as="geometry">
            <mxRectangle x="300" y="225" width="105" height="50" as="alternateBounds" />
          </mxGeometry>
        </mxCell>
        <mxCell id="5fLzKJ9tMeXBeS_LBeBV-11" value="Ma&lt;br&gt;Ten&lt;br&gt;Gia&lt;br&gt;Hinhthunho&lt;br&gt;Mota&lt;br&gt;Ngaytao&lt;br&gt;Ngaycapnhat&lt;br&gt;Ma_Danhmucsanpham" style="align=left;strokeColor=none;fillColor=none;spacingLeft=4;fontSize=12;verticalAlign=top;resizable=1;rotatable=1;part=1;html=1;movable=1;deletable=1;editable=1;locked=0;connectable=1;" parent="5fLzKJ9tMeXBeS_LBeBV-10" vertex="1">
          <mxGeometry y="50" width="135" height="130" as="geometry" />
        </mxCell>
        <mxCell id="5fLzKJ9tMeXBeS_LBeBV-12" value="Chitietdonhang" style="swimlane;childLayout=stackLayout;horizontal=1;startSize=50;horizontalStack=0;rounded=1;fontSize=14;fontStyle=0;strokeWidth=2;resizeParent=0;resizeLast=1;shadow=0;dashed=0;align=center;arcSize=4;whiteSpace=wrap;html=1;movable=1;resizable=1;rotatable=1;deletable=1;editable=1;locked=0;connectable=1;" parent="1" vertex="1">
          <mxGeometry x="592.5" y="-67.5" width="135" height="165" as="geometry">
            <mxRectangle x="540" y="240" width="135" height="50" as="alternateBounds" />
          </mxGeometry>
        </mxCell>
        <mxCell id="5fLzKJ9tMeXBeS_LBeBV-13" value="Ma_Donhang&lt;br&gt;Ma_Sanpham&lt;br&gt;Gia&lt;br&gt;Soluong&lt;br&gt;Thanhtien" style="align=left;strokeColor=none;fillColor=none;spacingLeft=4;fontSize=12;verticalAlign=top;resizable=1;rotatable=1;part=1;html=1;movable=1;deletable=1;editable=1;locked=0;connectable=1;" parent="5fLzKJ9tMeXBeS_LBeBV-12" vertex="1">
          <mxGeometry y="50" width="135" height="115" as="geometry" />
        </mxCell>
        <mxCell id="5fLzKJ9tMeXBeS_LBeBV-14" value="Nguoidung" style="swimlane;childLayout=stackLayout;horizontal=1;startSize=50;horizontalStack=0;rounded=1;fontSize=14;fontStyle=0;strokeWidth=2;resizeParent=0;resizeLast=1;shadow=0;dashed=0;align=center;arcSize=4;whiteSpace=wrap;html=1;movable=1;resizable=1;rotatable=1;deletable=1;editable=1;locked=0;connectable=1;" parent="1" vertex="1">
          <mxGeometry x="307.5" y="375" width="135" height="240" as="geometry">
            <mxRectangle x="279" y="660" width="75" height="50" as="alternateBounds" />
          </mxGeometry>
        </mxCell>
        <mxCell id="5fLzKJ9tMeXBeS_LBeBV-15" value="Ma&lt;br&gt;Tentaikhoan&lt;br&gt;Matkhau&lt;br&gt;Vaitro&lt;br&gt;Hoten&lt;br&gt;SDT&lt;br&gt;Email&lt;br&gt;DiaChi&lt;br&gt;Ngaytao&lt;br&gt;Ngaycapnhat&lt;br&gt;Ngaysinh&lt;br&gt;Trangthai" style="align=left;strokeColor=none;fillColor=none;spacingLeft=4;fontSize=12;verticalAlign=top;resizable=1;rotatable=1;part=1;html=1;movable=1;deletable=1;editable=1;locked=0;connectable=1;" parent="5fLzKJ9tMeXBeS_LBeBV-14" vertex="1">
          <mxGeometry y="50" width="135" height="190" as="geometry" />
        </mxCell>
        <mxCell id="5fLzKJ9tMeXBeS_LBeBV-16" value="Donhang" style="swimlane;childLayout=stackLayout;horizontal=1;startSize=50;horizontalStack=0;rounded=1;fontSize=14;fontStyle=0;strokeWidth=2;resizeParent=0;resizeLast=1;shadow=0;dashed=0;align=center;arcSize=4;whiteSpace=wrap;html=1;movable=1;resizable=1;rotatable=1;deletable=1;editable=1;locked=0;connectable=1;" parent="1" vertex="1">
          <mxGeometry x="592.5" y="375" width="135" height="300" as="geometry">
            <mxRectangle x="540" y="480" width="90" height="50" as="alternateBounds" />
          </mxGeometry>
        </mxCell>
        <mxCell id="5fLzKJ9tMeXBeS_LBeBV-17" value="Ma&lt;br&gt;Ma_Khachhang&lt;br&gt;Hoten&lt;br&gt;SDT&lt;br&gt;Email&lt;br&gt;Diachi&lt;br&gt;NgayDat&lt;br&gt;Ghichu&lt;br&gt;TrangthaiDH&lt;br&gt;Tongtien&lt;br&gt;Phuongthucgiaohang&lt;br&gt;Diachigiaohang&lt;br&gt;Ngaygiaohang&lt;br&gt;Sovandon&lt;br&gt;Phuongthucthanhtoan&lt;br&gt;TrangThai" style="align=left;strokeColor=none;fillColor=none;spacingLeft=4;fontSize=12;verticalAlign=top;resizable=1;rotatable=1;part=1;html=1;movable=1;deletable=1;editable=1;locked=0;connectable=1;" parent="5fLzKJ9tMeXBeS_LBeBV-16" vertex="1">
          <mxGeometry y="50" width="135" height="250" as="geometry" />
        </mxCell>
        <mxCell id="5fLzKJ9tMeXBeS_LBeBV-168" value="" style="edgeStyle=entityRelationEdgeStyle;fontSize=12;html=1;endArrow=ERzeroToMany;startArrow=ERmandOne;rounded=0;entryX=0;entryY=0.09;entryDx=0;entryDy=0;entryPerimeter=0;movable=1;resizable=1;rotatable=1;deletable=1;editable=1;locked=0;connectable=1;exitX=1;exitY=0.75;exitDx=0;exitDy=0;" parent="1" source="5fLzKJ9tMeXBeS_LBeBV-15" target="5fLzKJ9tMeXBeS_LBeBV-16" edge="1">
          <mxGeometry width="100" height="100" relative="1" as="geometry">
            <mxPoint x="442.5" y="480" as="sourcePoint" />
            <mxPoint x="521.5" y="390" as="targetPoint" />
            <Array as="points">
              <mxPoint x="502.5" y="540" />
              <mxPoint x="502.5" y="540" />
            </Array>
          </mxGeometry>
        </mxCell>
        <mxCell id="5fLzKJ9tMeXBeS_LBeBV-169" value="" style="edgeStyle=entityRelationEdgeStyle;fontSize=12;html=1;endArrow=ERoneToMany;startArrow=ERmandOne;rounded=0;movable=1;resizable=1;rotatable=1;deletable=1;editable=1;locked=0;connectable=1;" parent="1" source="5fLzKJ9tMeXBeS_LBeBV-17" target="5fLzKJ9tMeXBeS_LBeBV-13" edge="1">
          <mxGeometry width="100" height="100" relative="1" as="geometry">
            <mxPoint x="622.5" y="285" as="sourcePoint" />
            <mxPoint x="722.5" y="185" as="targetPoint" />
          </mxGeometry>
        </mxCell>
        <mxCell id="5fLzKJ9tMeXBeS_LBeBV-171" value="" style="fontSize=12;html=1;endArrow=ERzeroToMany;startArrow=ERmandOne;rounded=0;movable=1;resizable=1;rotatable=1;deletable=1;editable=1;locked=0;connectable=1;exitX=1;exitY=0.25;exitDx=0;exitDy=0;entryX=-0.001;entryY=0.2;entryDx=0;entryDy=0;entryPerimeter=0;" parent="1" source="5fLzKJ9tMeXBeS_LBeBV-4" target="5fLzKJ9tMeXBeS_LBeBV-10" edge="1">
          <mxGeometry width="100" height="100" relative="1" as="geometry">
            <mxPoint x="202.5" y="-30" as="sourcePoint" />
            <mxPoint x="337.5" y="-45" as="targetPoint" />
          </mxGeometry>
        </mxCell>
        <mxCell id="5fLzKJ9tMeXBeS_LBeBV-172" value="" style="fontSize=12;html=1;endArrow=ERzeroToMany;startArrow=ERmandOne;rounded=0;exitX=1;exitY=0.189;exitDx=0;exitDy=0;exitPerimeter=0;entryX=-0.007;entryY=0.145;entryDx=0;entryDy=0;entryPerimeter=0;movable=1;resizable=1;rotatable=1;deletable=1;editable=1;locked=0;connectable=1;" parent="1" source="5fLzKJ9tMeXBeS_LBeBV-10" target="5fLzKJ9tMeXBeS_LBeBV-12" edge="1">
          <mxGeometry width="100" height="100" relative="1" as="geometry">
            <mxPoint x="442.5" y="210" as="sourcePoint" />
            <mxPoint x="542.5" y="110" as="targetPoint" />
          </mxGeometry>
        </mxCell>
        <mxCell id="5fLzKJ9tMeXBeS_LBeBV-174" value="USER" style="shape=umlActor;verticalLabelPosition=bottom;verticalAlign=top;html=1;outlineConnect=0;" parent="1" vertex="1">
          <mxGeometry x="37.5" y="1695" width="75" height="90" as="geometry" />
        </mxCell>
        <mxCell id="5fLzKJ9tMeXBeS_LBeBV-178" value="Đăng kí" style="ellipse;whiteSpace=wrap;html=1;fontSize=20;" parent="1" vertex="1">
          <mxGeometry x="211.12" y="945" width="105" height="45" as="geometry" />
        </mxCell>
        <mxCell id="5fLzKJ9tMeXBeS_LBeBV-195" value="ADMIN&lt;br&gt;" style="shape=umlActor;verticalLabelPosition=bottom;verticalAlign=top;html=1;outlineConnect=0;" parent="1" vertex="1">
          <mxGeometry x="690" y="1185" width="75" height="90" as="geometry" />
        </mxCell>
        <mxCell id="5fLzKJ9tMeXBeS_LBeBV-196" value="Guest" style="shape=umlActor;verticalLabelPosition=bottom;verticalAlign=top;html=1;outlineConnect=0;" parent="1" vertex="1">
          <mxGeometry x="45" y="1079" width="60" height="90" as="geometry" />
        </mxCell>
        <mxCell id="5fLzKJ9tMeXBeS_LBeBV-202" value="" style="endArrow=open;endFill=1;endSize=12;html=1;rounded=0;" parent="1" source="5fLzKJ9tMeXBeS_LBeBV-196" target="5fLzKJ9tMeXBeS_LBeBV-178" edge="1">
          <mxGeometry width="160" relative="1" as="geometry">
            <mxPoint x="135" y="1095" as="sourcePoint" />
            <mxPoint x="295" y="1095" as="targetPoint" />
          </mxGeometry>
        </mxCell>
        <mxCell id="5fLzKJ9tMeXBeS_LBeBV-203" value="Giỏ hàng" style="ellipse;whiteSpace=wrap;html=1;fontSize=20;" parent="1" vertex="1">
          <mxGeometry x="299.37" y="1140" width="117.25" height="45" as="geometry" />
        </mxCell>
        <mxCell id="5fLzKJ9tMeXBeS_LBeBV-204" value="" style="endArrow=open;endFill=1;endSize=12;html=1;rounded=0;" parent="1" source="5fLzKJ9tMeXBeS_LBeBV-196" target="5fLzKJ9tMeXBeS_LBeBV-203" edge="1">
          <mxGeometry width="160" relative="1" as="geometry">
            <mxPoint x="150" y="1208" as="sourcePoint" />
            <mxPoint x="340" y="1199" as="targetPoint" />
          </mxGeometry>
        </mxCell>
        <mxCell id="5fLzKJ9tMeXBeS_LBeBV-205" value="Đăng nhập" style="ellipse;whiteSpace=wrap;html=1;fontSize=20;" parent="1" vertex="1">
          <mxGeometry x="279.93" y="1440" width="105" height="45" as="geometry" />
        </mxCell>
        <mxCell id="5fLzKJ9tMeXBeS_LBeBV-206" value="" style="endArrow=open;endFill=1;endSize=12;html=1;rounded=0;" parent="1" source="5fLzKJ9tMeXBeS_LBeBV-174" target="5fLzKJ9tMeXBeS_LBeBV-205" edge="1">
          <mxGeometry width="160" relative="1" as="geometry">
            <mxPoint x="135" y="1134" as="sourcePoint" />
            <mxPoint x="325" y="1125" as="targetPoint" />
          </mxGeometry>
        </mxCell>
        <mxCell id="5fLzKJ9tMeXBeS_LBeBV-207" value="Tìm kiếm sản phẩn" style="ellipse;whiteSpace=wrap;html=1;fontSize=20;" parent="1" vertex="1">
          <mxGeometry x="266.62" y="1005" width="150" height="53.5" as="geometry" />
        </mxCell>
        <mxCell id="5fLzKJ9tMeXBeS_LBeBV-208" value="" style="endArrow=open;endFill=1;endSize=12;html=1;rounded=0;" parent="1" source="5fLzKJ9tMeXBeS_LBeBV-196" target="5fLzKJ9tMeXBeS_LBeBV-207" edge="1">
          <mxGeometry width="160" relative="1" as="geometry">
            <mxPoint x="150" y="1149" as="sourcePoint" />
            <mxPoint x="340" y="1140" as="targetPoint" />
          </mxGeometry>
        </mxCell>
        <mxCell id="5fLzKJ9tMeXBeS_LBeBV-209" value="Xem chi tiết sản phẩm" style="ellipse;whiteSpace=wrap;html=1;fontSize=20;" parent="1" vertex="1">
          <mxGeometry x="259.12" y="1072.5" width="199.5" height="60" as="geometry" />
        </mxCell>
        <mxCell id="5fLzKJ9tMeXBeS_LBeBV-210" value="" style="endArrow=open;endFill=1;endSize=12;html=1;rounded=0;" parent="1" target="5fLzKJ9tMeXBeS_LBeBV-209" edge="1">
          <mxGeometry width="160" relative="1" as="geometry">
            <mxPoint x="105" y="1125" as="sourcePoint" />
            <mxPoint x="355" y="1155" as="targetPoint" />
          </mxGeometry>
        </mxCell>
        <mxCell id="5fLzKJ9tMeXBeS_LBeBV-213" value="Sản phẩm yêu thích" style="ellipse;whiteSpace=wrap;html=1;fontSize=20;" parent="1" vertex="1">
          <mxGeometry x="279.93" y="1200" width="123.38" height="60" as="geometry" />
        </mxCell>
        <mxCell id="5fLzKJ9tMeXBeS_LBeBV-214" value="" style="endArrow=open;endFill=1;endSize=12;html=1;rounded=0;" parent="1" source="5fLzKJ9tMeXBeS_LBeBV-196" target="5fLzKJ9tMeXBeS_LBeBV-213" edge="1">
          <mxGeometry width="160" relative="1" as="geometry">
            <mxPoint x="195" y="1194" as="sourcePoint" />
            <mxPoint x="385" y="1185" as="targetPoint" />
          </mxGeometry>
        </mxCell>
        <mxCell id="5fLzKJ9tMeXBeS_LBeBV-220" value="Extends" style="endArrow=block;endSize=16;endFill=0;html=1;rounded=0;" parent="1" source="5fLzKJ9tMeXBeS_LBeBV-174" edge="1">
          <mxGeometry y="30" width="160" relative="1" as="geometry">
            <mxPoint x="66.5" y="1470" as="sourcePoint" />
            <mxPoint x="75" y="1200" as="targetPoint" />
            <mxPoint as="offset" />
          </mxGeometry>
        </mxCell>
        <mxCell id="5fLzKJ9tMeXBeS_LBeBV-221" value="Extends" style="endArrow=block;endSize=16;endFill=0;html=1;rounded=0;" parent="1" edge="1">
          <mxGeometry x="-0.7447" y="17" width="160" relative="1" as="geometry">
            <mxPoint x="720" y="1305" as="sourcePoint" />
            <mxPoint x="120" y="1770" as="targetPoint" />
            <Array as="points">
              <mxPoint x="720" y="1770" />
              <mxPoint x="405" y="1770" />
            </Array>
            <mxPoint as="offset" />
          </mxGeometry>
        </mxCell>
        <mxCell id="5fLzKJ9tMeXBeS_LBeBV-222" value="" style="endArrow=open;endFill=1;endSize=12;html=1;rounded=0;" parent="1" source="5fLzKJ9tMeXBeS_LBeBV-174" target="5fLzKJ9tMeXBeS_LBeBV-223" edge="1">
          <mxGeometry width="160" relative="1" as="geometry">
            <mxPoint x="237.51" y="1785" as="sourcePoint" />
            <mxPoint x="306.75419076522553" y="2085.1228020069007" as="targetPoint" />
          </mxGeometry>
        </mxCell>
        <mxCell id="5fLzKJ9tMeXBeS_LBeBV-223" value="Cập nhật thông tin" style="ellipse;whiteSpace=wrap;html=1;fontSize=20;" parent="1" vertex="1">
          <mxGeometry x="487.63" y="1455" width="158" height="60" as="geometry" />
        </mxCell>
        <mxCell id="5fLzKJ9tMeXBeS_LBeBV-224" value="" style="endArrow=open;endFill=1;endSize=12;html=1;rounded=0;exitX=0.75;exitY=0.1;exitDx=0;exitDy=0;exitPerimeter=0;" parent="1" source="5fLzKJ9tMeXBeS_LBeBV-174" target="5fLzKJ9tMeXBeS_LBeBV-225" edge="1">
          <mxGeometry width="160" relative="1" as="geometry">
            <mxPoint x="410.76" y="1725" as="sourcePoint" />
            <mxPoint x="480.00419076522553" y="2025.1228020069007" as="targetPoint" />
          </mxGeometry>
        </mxCell>
        <mxCell id="5fLzKJ9tMeXBeS_LBeBV-225" value="Đặt hàng" style="ellipse;whiteSpace=wrap;html=1;fontSize=20;" parent="1" vertex="1">
          <mxGeometry x="206.5" y="1380" width="120" height="45" as="geometry" />
        </mxCell>
        <mxCell id="5fLzKJ9tMeXBeS_LBeBV-226" value="" style="endArrow=open;endFill=1;endSize=12;html=1;rounded=0;" parent="1" source="5fLzKJ9tMeXBeS_LBeBV-174" target="5fLzKJ9tMeXBeS_LBeBV-227" edge="1">
          <mxGeometry width="160" relative="1" as="geometry">
            <mxPoint x="252.51" y="1800" as="sourcePoint" />
            <mxPoint x="321.75419076522553" y="2100.1228020069007" as="targetPoint" />
          </mxGeometry>
        </mxCell>
        <mxCell id="5fLzKJ9tMeXBeS_LBeBV-227" value="Đổi mật khẩu&lt;br&gt;" style="ellipse;whiteSpace=wrap;html=1;fontSize=20;" parent="1" vertex="1">
          <mxGeometry x="485.57" y="1530" width="152.25" height="60" as="geometry" />
        </mxCell>
        <mxCell id="5fLzKJ9tMeXBeS_LBeBV-228" value="" style="endArrow=open;endFill=1;endSize=12;html=1;rounded=0;" parent="1" source="5fLzKJ9tMeXBeS_LBeBV-174" target="5fLzKJ9tMeXBeS_LBeBV-229" edge="1">
          <mxGeometry width="160" relative="1" as="geometry">
            <mxPoint x="267.51" y="1815" as="sourcePoint" />
            <mxPoint x="336.75419076522553" y="2115.1228020069007" as="targetPoint" />
          </mxGeometry>
        </mxCell>
        <mxCell id="5fLzKJ9tMeXBeS_LBeBV-229" value="Quên mật khẩu&lt;br&gt;" style="ellipse;whiteSpace=wrap;html=1;fontSize=20;" parent="1" vertex="1">
          <mxGeometry x="478.2" y="1665" width="152.25" height="60" as="geometry" />
        </mxCell>
        <mxCell id="5fLzKJ9tMeXBeS_LBeBV-232" value="" style="endArrow=open;endFill=1;endSize=12;html=1;rounded=0;" parent="1" source="5fLzKJ9tMeXBeS_LBeBV-195" target="5fLzKJ9tMeXBeS_LBeBV-233" edge="1">
          <mxGeometry width="160" relative="1" as="geometry">
            <mxPoint x="297.51" y="1845" as="sourcePoint" />
            <mxPoint x="366.75419076522553" y="2145.1228020069007" as="targetPoint" />
          </mxGeometry>
        </mxCell>
        <mxCell id="5fLzKJ9tMeXBeS_LBeBV-233" value="Quản lý danh mục" style="ellipse;whiteSpace=wrap;html=1;fontSize=20;" parent="1" vertex="1">
          <mxGeometry x="478.2" y="975" width="152.25" height="60" as="geometry" />
        </mxCell>
        <mxCell id="5fLzKJ9tMeXBeS_LBeBV-236" value="" style="endArrow=open;endFill=1;endSize=12;html=1;rounded=0;" parent="1" source="5fLzKJ9tMeXBeS_LBeBV-195" target="5fLzKJ9tMeXBeS_LBeBV-237" edge="1">
          <mxGeometry width="160" relative="1" as="geometry">
            <mxPoint x="327.51" y="1875" as="sourcePoint" />
            <mxPoint x="396.75419076522553" y="2175.1228020069007" as="targetPoint" />
          </mxGeometry>
        </mxCell>
        <mxCell id="5fLzKJ9tMeXBeS_LBeBV-237" value="Quản lý sản phẩm" style="ellipse;whiteSpace=wrap;html=1;fontSize=20;" parent="1" vertex="1">
          <mxGeometry x="478.2" y="1081" width="131.25" height="51.5" as="geometry" />
        </mxCell>
        <mxCell id="54_VE5LClW7WhIvUvSRP-94" value="Danhmuc&lt;br&gt;sanpham" style="swimlane;childLayout=stackLayout;horizontal=1;startSize=50;horizontalStack=0;rounded=1;fontSize=18;fontStyle=0;strokeWidth=2;resizeParent=0;resizeLast=1;shadow=0;dashed=0;align=center;arcSize=4;whiteSpace=wrap;html=1;movable=0;resizable=0;rotatable=0;deletable=0;editable=0;locked=1;connectable=0;" parent="1" vertex="1" collapsed="1">
          <mxGeometry x="85.75" y="-569" width="120" height="50" as="geometry">
            <mxRectangle x="30" y="225" width="165" height="90" as="alternateBounds" />
          </mxGeometry>
        </mxCell>
        <mxCell id="54_VE5LClW7WhIvUvSRP-95" value="id&lt;br&gt;name&lt;br&gt;" style="align=left;strokeColor=none;fillColor=none;spacingLeft=4;fontSize=12;verticalAlign=top;resizable=1;rotatable=1;part=1;html=1;movable=1;deletable=1;editable=1;locked=0;connectable=1;" parent="54_VE5LClW7WhIvUvSRP-94" vertex="1">
          <mxGeometry y="50" width="165" height="40" as="geometry" />
        </mxCell>
        <mxCell id="54_VE5LClW7WhIvUvSRP-98" value="Admin" style="swimlane;childLayout=stackLayout;horizontal=1;startSize=50;horizontalStack=0;rounded=1;fontSize=18;fontStyle=0;strokeWidth=2;resizeParent=0;resizeLast=1;shadow=0;dashed=0;align=center;arcSize=4;whiteSpace=wrap;html=1;movable=0;resizable=0;rotatable=0;deletable=0;editable=0;locked=1;connectable=0;" parent="1" vertex="1" collapsed="1">
          <mxGeometry x="100.75" y="-229" width="75" height="50" as="geometry">
            <mxRectangle x="300" y="480" width="135" height="120" as="alternateBounds" />
          </mxGeometry>
        </mxCell>
        <mxCell id="54_VE5LClW7WhIvUvSRP-99" value="id&lt;br&gt;name&lt;br&gt;" style="align=left;strokeColor=none;fillColor=none;spacingLeft=4;fontSize=12;verticalAlign=top;resizable=1;rotatable=1;part=1;html=1;movable=1;deletable=1;editable=1;locked=0;connectable=1;" parent="54_VE5LClW7WhIvUvSRP-98" vertex="1">
          <mxGeometry y="50" width="135" height="70" as="geometry" />
        </mxCell>
        <mxCell id="54_VE5LClW7WhIvUvSRP-100" value="Sanpham" style="swimlane;childLayout=stackLayout;horizontal=1;startSize=50;horizontalStack=0;rounded=1;fontSize=18;fontStyle=0;strokeWidth=2;resizeParent=0;resizeLast=1;shadow=0;dashed=0;align=center;arcSize=4;whiteSpace=wrap;html=1;movable=0;resizable=0;rotatable=0;deletable=0;editable=0;locked=1;connectable=0;" parent="1" vertex="1" collapsed="1">
          <mxGeometry x="544.75" y="-581.5" width="105" height="50" as="geometry">
            <mxRectangle x="300" y="225" width="135" height="180" as="alternateBounds" />
          </mxGeometry>
        </mxCell>
        <mxCell id="54_VE5LClW7WhIvUvSRP-101" value="id&lt;br&gt;name&lt;br&gt;price&lt;br&gt;thumbnail&lt;br&gt;desciption&lt;br&gt;created_at&lt;br&gt;updated_at&lt;br&gt;category_id" style="align=left;strokeColor=none;fillColor=none;spacingLeft=4;fontSize=12;verticalAlign=top;resizable=1;rotatable=1;part=1;html=1;movable=1;deletable=1;editable=1;locked=0;connectable=1;" parent="54_VE5LClW7WhIvUvSRP-100" vertex="1">
          <mxGeometry y="50" width="135" height="130" as="geometry" />
        </mxCell>
        <mxCell id="54_VE5LClW7WhIvUvSRP-104" value="Khachhang" style="swimlane;childLayout=stackLayout;horizontal=1;startSize=50;horizontalStack=0;rounded=1;fontSize=18;fontStyle=0;strokeWidth=2;resizeParent=0;resizeLast=1;shadow=0;dashed=0;align=center;arcSize=4;whiteSpace=wrap;html=1;movable=0;resizable=0;rotatable=0;deletable=0;editable=0;locked=1;connectable=0;" parent="1" vertex="1" collapsed="1">
          <mxGeometry x="495" y="-279" width="124.75" height="50" as="geometry">
            <mxRectangle x="279" y="660" width="135" height="240" as="alternateBounds" />
          </mxGeometry>
        </mxCell>
        <mxCell id="54_VE5LClW7WhIvUvSRP-105" value="id&lt;br&gt;fullname&lt;br&gt;phone_number&lt;br&gt;address&lt;br&gt;password&lt;br&gt;created_at&lt;br&gt;updated_at&lt;br&gt;is_active&lt;br&gt;date_of_birth&lt;br&gt;facebook_account_id&lt;br&gt;google_account_id&lt;br&gt;role_id" style="align=left;strokeColor=none;fillColor=none;spacingLeft=4;fontSize=12;verticalAlign=top;resizable=1;rotatable=1;part=1;html=1;movable=1;deletable=1;editable=1;locked=0;connectable=1;" parent="54_VE5LClW7WhIvUvSRP-104" vertex="1">
          <mxGeometry y="50" width="135" height="190" as="geometry" />
        </mxCell>
        <mxCell id="54_VE5LClW7WhIvUvSRP-106" value="Donhang" style="swimlane;childLayout=stackLayout;horizontal=1;startSize=50;horizontalStack=0;rounded=1;fontSize=18;fontStyle=0;strokeWidth=2;resizeParent=0;resizeLast=1;shadow=0;dashed=0;align=center;arcSize=4;whiteSpace=wrap;html=1;movable=0;resizable=0;rotatable=0;deletable=0;editable=0;locked=1;connectable=0;" parent="1" vertex="1" collapsed="1">
          <mxGeometry x="942.75" y="-254" width="90" height="37.5" as="geometry">
            <mxRectangle x="857" y="-82.5" width="135" height="300" as="alternateBounds" />
          </mxGeometry>
        </mxCell>
        <mxCell id="54_VE5LClW7WhIvUvSRP-107" value="id&lt;br&gt;user_id&lt;br&gt;fullname&lt;br&gt;email&lt;br&gt;phone_number&lt;br&gt;address&lt;br&gt;note&lt;br&gt;order_date&lt;br&gt;status&lt;br&gt;total_money&lt;br&gt;shipping_method&lt;br&gt;shipping_address&lt;br&gt;shipping_date&lt;br&gt;tracking_number&lt;br&gt;payment_method&lt;br&gt;active" style="align=left;strokeColor=none;fillColor=none;spacingLeft=4;fontSize=12;verticalAlign=top;resizable=1;rotatable=1;part=1;html=1;movable=1;deletable=1;editable=1;locked=0;connectable=1;" parent="54_VE5LClW7WhIvUvSRP-106" vertex="1">
          <mxGeometry y="50" width="135" height="250" as="geometry" />
        </mxCell>
        <mxCell id="54_VE5LClW7WhIvUvSRP-110" value="gồm" style="rhombus;whiteSpace=wrap;html=1;movable=0;resizable=0;rotatable=0;deletable=0;editable=0;locked=1;connectable=0;fontSize=18;" parent="1" vertex="1">
          <mxGeometry x="288.25" y="-576.5" width="155" height="65" as="geometry" />
        </mxCell>
        <mxCell id="54_VE5LClW7WhIvUvSRP-111" value="" style="fontSize=18;html=1;endArrow=ERmandOne;rounded=0;entryX=1;entryY=0.5;entryDx=0;entryDy=0;exitX=0;exitY=0.5;exitDx=0;exitDy=0;movable=0;resizable=0;rotatable=0;deletable=0;editable=0;locked=1;connectable=0;" parent="1" source="54_VE5LClW7WhIvUvSRP-110" target="54_VE5LClW7WhIvUvSRP-94" edge="1">
          <mxGeometry width="100" height="100" relative="1" as="geometry">
            <mxPoint x="183.25" y="-289" as="sourcePoint" />
            <mxPoint x="283.25" y="-389" as="targetPoint" />
          </mxGeometry>
        </mxCell>
        <mxCell id="54_VE5LClW7WhIvUvSRP-114" value="" style="fontSize=18;html=1;endArrow=ERzeroToMany;endFill=1;rounded=0;exitX=1;exitY=0.5;exitDx=0;exitDy=0;entryX=0;entryY=0.5;entryDx=0;entryDy=0;movable=0;resizable=0;rotatable=0;deletable=0;editable=0;locked=1;connectable=0;" parent="1" source="54_VE5LClW7WhIvUvSRP-110" target="54_VE5LClW7WhIvUvSRP-100" edge="1">
          <mxGeometry width="100" height="100" relative="1" as="geometry">
            <mxPoint x="393.25499999999994" y="-474.0050000000001" as="sourcePoint" />
            <mxPoint x="588.25" y="-494" as="targetPoint" />
          </mxGeometry>
        </mxCell>
        <mxCell id="54_VE5LClW7WhIvUvSRP-115" value="" style="fontSize=18;html=1;endArrow=ERoneToMany;rounded=0;movable=0;resizable=0;rotatable=0;deletable=0;editable=0;locked=1;connectable=0;exitX=0.093;exitY=0.546;exitDx=0;exitDy=0;exitPerimeter=0;" parent="1" source="Yz6XbcF130ffkjswpImM-1" target="54_VE5LClW7WhIvUvSRP-100" edge="1">
          <mxGeometry width="100" height="100" relative="1" as="geometry">
            <mxPoint x="708.25" y="-184" as="sourcePoint" />
            <mxPoint x="987.75" y="-534" as="targetPoint" />
          </mxGeometry>
        </mxCell>
        <mxCell id="54_VE5LClW7WhIvUvSRP-116" value="Đặt" style="rhombus;whiteSpace=wrap;html=1;movable=0;resizable=0;rotatable=0;deletable=0;editable=0;locked=1;connectable=0;fontSize=18;" parent="1" vertex="1">
          <mxGeometry x="708.62" y="-289" width="155" height="65" as="geometry" />
        </mxCell>
        <mxCell id="54_VE5LClW7WhIvUvSRP-126" value="" style="fontSize=18;html=1;endArrow=ERmandOne;rounded=0;exitX=0;exitY=0.5;exitDx=0;exitDy=0;movable=0;resizable=0;rotatable=0;deletable=0;editable=0;locked=1;connectable=0;" parent="1" source="54_VE5LClW7WhIvUvSRP-128" target="54_VE5LClW7WhIvUvSRP-98" edge="1">
          <mxGeometry width="100" height="100" relative="1" as="geometry">
            <mxPoint x="573.87" y="-159" as="sourcePoint" />
            <mxPoint x="573.87" y="-89" as="targetPoint" />
          </mxGeometry>
        </mxCell>
        <mxCell id="54_VE5LClW7WhIvUvSRP-127" value="" style="fontSize=18;html=1;endArrow=ERoneToMany;rounded=0;exitX=1;exitY=0.5;exitDx=0;exitDy=0;movable=0;resizable=0;rotatable=0;deletable=0;editable=0;locked=1;connectable=0;" parent="1" source="54_VE5LClW7WhIvUvSRP-128" target="54_VE5LClW7WhIvUvSRP-104" edge="1">
          <mxGeometry width="100" height="100" relative="1" as="geometry">
            <mxPoint x="574.25" y="-194" as="sourcePoint" />
            <mxPoint x="573.87" y="-281.5" as="targetPoint" />
          </mxGeometry>
        </mxCell>
        <mxCell id="54_VE5LClW7WhIvUvSRP-128" value="quản lý&lt;br&gt;" style="rhombus;whiteSpace=wrap;html=1;movable=0;resizable=0;rotatable=0;deletable=0;editable=0;locked=1;connectable=0;fontSize=18;" parent="1" vertex="1">
          <mxGeometry x="296.87" y="-281.5" width="155" height="65" as="geometry" />
        </mxCell>
        <mxCell id="54_VE5LClW7WhIvUvSRP-129" value="" style="fontSize=18;html=1;endArrow=ERmandOne;rounded=0;exitX=0.045;exitY=0.554;exitDx=0;exitDy=0;exitPerimeter=0;movable=0;resizable=0;rotatable=0;deletable=0;editable=0;locked=1;connectable=0;" parent="1" source="54_VE5LClW7WhIvUvSRP-116" target="54_VE5LClW7WhIvUvSRP-104" edge="1">
          <mxGeometry width="100" height="100" relative="1" as="geometry">
            <mxPoint x="591.25" y="-149" as="sourcePoint" />
            <mxPoint x="591.25" y="-74" as="targetPoint" />
          </mxGeometry>
        </mxCell>
        <mxCell id="54_VE5LClW7WhIvUvSRP-130" value="" style="fontSize=18;html=1;endArrow=ERzeroToMany;endFill=1;rounded=0;exitX=1;exitY=0.5;exitDx=0;exitDy=0;entryX=0;entryY=0.25;entryDx=0;entryDy=0;movable=0;resizable=0;rotatable=0;deletable=0;editable=0;locked=1;connectable=0;" parent="1" source="54_VE5LClW7WhIvUvSRP-116" target="54_VE5LClW7WhIvUvSRP-106" edge="1">
          <mxGeometry width="100" height="100" relative="1" as="geometry">
            <mxPoint x="863.25" y="-484" as="sourcePoint" />
            <mxPoint x="935.25" y="-488" as="targetPoint" />
          </mxGeometry>
        </mxCell>
        <mxCell id="TTsMlhrMvdFJEwityDDN-1" value="" style="endArrow=open;endFill=1;endSize=12;html=1;rounded=0;" parent="1" target="TTsMlhrMvdFJEwityDDN-2" edge="1">
          <mxGeometry width="160" relative="1" as="geometry">
            <mxPoint x="675" y="1245" as="sourcePoint" />
            <mxPoint x="396.75419076522553" y="2227.6228020069007" as="targetPoint" />
          </mxGeometry>
        </mxCell>
        <mxCell id="TTsMlhrMvdFJEwityDDN-2" value="Quản lý đơn hàng" style="ellipse;whiteSpace=wrap;html=1;fontSize=20;" parent="1" vertex="1">
          <mxGeometry x="478.2" y="1185" width="142.37" height="90" as="geometry" />
        </mxCell>
        <mxCell id="z6DuVe3DVs5f5lUHX8h4-1" value="" style="endArrow=open;endFill=1;endSize=12;html=1;rounded=0;" parent="1" source="5fLzKJ9tMeXBeS_LBeBV-174" target="z6DuVe3DVs5f5lUHX8h4-2" edge="1">
          <mxGeometry width="160" relative="1" as="geometry">
            <mxPoint x="173.5" y="1744" as="sourcePoint" />
            <mxPoint x="564.5041907652255" y="2151.1228020069007" as="targetPoint" />
          </mxGeometry>
        </mxCell>
        <mxCell id="z6DuVe3DVs5f5lUHX8h4-2" value="Đánh giá" style="ellipse;whiteSpace=wrap;html=1;fontSize=20;" parent="1" vertex="1">
          <mxGeometry x="344.7" y="1485" width="133.5" height="45" as="geometry" />
        </mxCell>
        <mxCell id="z6DuVe3DVs5f5lUHX8h4-25" value="" style="fontSize=18;html=1;endArrow=ERmandOne;rounded=0;movable=0;resizable=0;rotatable=0;deletable=0;editable=0;locked=1;connectable=0;exitX=0;exitY=0.5;exitDx=0;exitDy=0;" parent="1" source="z6DuVe3DVs5f5lUHX8h4-27" target="54_VE5LClW7WhIvUvSRP-98" edge="1">
          <mxGeometry width="100" height="100" relative="1" as="geometry">
            <mxPoint x="378.75" y="-361.5" as="sourcePoint" />
            <mxPoint x="190.75" y="-276.5" as="targetPoint" />
          </mxGeometry>
        </mxCell>
        <mxCell id="z6DuVe3DVs5f5lUHX8h4-26" value="" style="fontSize=18;html=1;endArrow=ERoneToMany;rounded=0;movable=0;resizable=0;rotatable=0;deletable=0;editable=0;locked=1;connectable=0;exitX=0.946;exitY=0.477;exitDx=0;exitDy=0;exitPerimeter=0;" parent="1" source="z6DuVe3DVs5f5lUHX8h4-27" target="54_VE5LClW7WhIvUvSRP-100" edge="1">
          <mxGeometry width="100" height="100" relative="1" as="geometry">
            <mxPoint x="400.75" y="-381.5" as="sourcePoint" />
            <mxPoint x="550.75" y="-471.5" as="targetPoint" />
          </mxGeometry>
        </mxCell>
        <mxCell id="z6DuVe3DVs5f5lUHX8h4-27" value="quản lý&lt;br&gt;" style="rhombus;whiteSpace=wrap;html=1;movable=0;resizable=0;rotatable=0;deletable=0;editable=0;locked=1;connectable=0;fontSize=18;" parent="1" vertex="1">
          <mxGeometry x="292.25" y="-471.5" width="155" height="65" as="geometry" />
        </mxCell>
        <mxCell id="z6DuVe3DVs5f5lUHX8h4-31" value="" style="fontSize=18;html=1;endArrow=ERmandOne;rounded=0;exitX=0;exitY=0.5;exitDx=0;exitDy=0;movable=0;resizable=0;rotatable=0;deletable=0;editable=0;locked=1;connectable=0;" parent="1" source="z6DuVe3DVs5f5lUHX8h4-33" target="54_VE5LClW7WhIvUvSRP-98" edge="1">
          <mxGeometry width="100" height="100" relative="1" as="geometry">
            <mxPoint x="678.87" y="-60.53999999999999" as="sourcePoint" />
            <mxPoint x="265.75" y="-201.50071881119678" as="targetPoint" />
          </mxGeometry>
        </mxCell>
        <mxCell id="z6DuVe3DVs5f5lUHX8h4-32" value="" style="fontSize=18;html=1;endArrow=ERoneToMany;rounded=0;exitX=1;exitY=0.5;exitDx=0;exitDy=0;movable=0;resizable=0;rotatable=0;deletable=0;editable=0;locked=1;connectable=0;" parent="1" source="z6DuVe3DVs5f5lUHX8h4-33" target="54_VE5LClW7WhIvUvSRP-106" edge="1">
          <mxGeometry width="100" height="100" relative="1" as="geometry">
            <mxPoint x="679.25" y="-95.53999999999999" as="sourcePoint" />
            <mxPoint x="649.75" y="-154.04" as="targetPoint" />
          </mxGeometry>
        </mxCell>
        <mxCell id="z6DuVe3DVs5f5lUHX8h4-33" value="quản lý&lt;br&gt;" style="rhombus;whiteSpace=wrap;html=1;movable=0;resizable=0;rotatable=0;deletable=0;editable=0;locked=1;connectable=0;fontSize=18;" parent="1" vertex="1">
          <mxGeometry x="464.75" y="-201.5" width="155" height="65" as="geometry" />
        </mxCell>
        <mxCell id="z6DuVe3DVs5f5lUHX8h4-34" value="" style="fontSize=18;html=1;endArrow=ERmandOne;rounded=0;movable=0;resizable=0;rotatable=0;deletable=0;editable=0;locked=1;connectable=0;exitX=0.5;exitY=1;exitDx=0;exitDy=0;" parent="1" source="z6DuVe3DVs5f5lUHX8h4-36" target="54_VE5LClW7WhIvUvSRP-98" edge="1">
          <mxGeometry width="100" height="100" relative="1" as="geometry">
            <mxPoint x="109.75" y="-377.5" as="sourcePoint" />
            <mxPoint x="-30.630000000000003" y="-257.5" as="targetPoint" />
          </mxGeometry>
        </mxCell>
        <mxCell id="z6DuVe3DVs5f5lUHX8h4-35" value="" style="fontSize=18;html=1;endArrow=ERoneToMany;rounded=0;movable=0;resizable=0;rotatable=0;deletable=0;editable=0;locked=1;connectable=0;exitX=0.5;exitY=0;exitDx=0;exitDy=0;" parent="1" source="z6DuVe3DVs5f5lUHX8h4-36" target="54_VE5LClW7WhIvUvSRP-94" edge="1">
          <mxGeometry width="100" height="100" relative="1" as="geometry">
            <mxPoint x="202.37" y="-365.5" as="sourcePoint" />
            <mxPoint x="352.37" y="-455.5" as="targetPoint" />
          </mxGeometry>
        </mxCell>
        <mxCell id="z6DuVe3DVs5f5lUHX8h4-36" value="quản lý&lt;br&gt;" style="rhombus;whiteSpace=wrap;html=1;movable=0;resizable=0;rotatable=0;deletable=0;editable=0;locked=1;connectable=0;fontSize=18;" parent="1" vertex="1">
          <mxGeometry x="68.25000000000001" y="-433.53" width="155" height="65" as="geometry" />
        </mxCell>
        <mxCell id="z6DuVe3DVs5f5lUHX8h4-39" value="có" style="rhombus;whiteSpace=wrap;html=1;movable=0;resizable=0;rotatable=0;deletable=0;editable=0;locked=1;connectable=0;fontSize=18;" parent="1" vertex="1">
          <mxGeometry x="537.25" y="-675" width="120" height="45.47" as="geometry" />
        </mxCell>
        <mxCell id="z6DuVe3DVs5f5lUHX8h4-41" value="" style="fontSize=18;html=1;endArrow=ERmandOne;rounded=0;movable=0;resizable=0;rotatable=0;deletable=0;editable=0;locked=1;connectable=0;" parent="1" source="z6DuVe3DVs5f5lUHX8h4-39" target="54_VE5LClW7WhIvUvSRP-100" edge="1">
          <mxGeometry width="100" height="100" relative="1" as="geometry">
            <mxPoint x="328.01" y="-54.53" as="sourcePoint" />
            <mxPoint x="551.8699999999998" y="-441.5000272479565" as="targetPoint" />
          </mxGeometry>
        </mxCell>
        <mxCell id="Yz6XbcF130ffkjswpImM-1" value="Chitietdonhang" style="rhombus;whiteSpace=wrap;html=1;movable=0;resizable=0;rotatable=0;deletable=0;editable=0;locked=1;connectable=0;fontSize=18;" parent="1" vertex="1">
          <mxGeometry x="883" y="-591.97" width="182.25" height="60.47" as="geometry" />
        </mxCell>
        <mxCell id="Yz6XbcF130ffkjswpImM-2" value="" style="fontSize=18;html=1;endArrow=ERzeroToMany;endFill=1;rounded=0;movable=0;resizable=0;rotatable=0;deletable=0;editable=0;locked=1;connectable=0;" parent="1" source="Yz6XbcF130ffkjswpImM-1" target="54_VE5LClW7WhIvUvSRP-106" edge="1">
          <mxGeometry width="100" height="100" relative="1" as="geometry">
            <mxPoint x="1020" y="-480" as="sourcePoint" />
            <mxPoint x="985.6508522940144" y="-388.11971225232855" as="targetPoint" />
          </mxGeometry>
        </mxCell>
        <mxCell id="L-Q6csGe15FDerK6c003-2" value="Vaitro" style="swimlane;childLayout=stackLayout;horizontal=1;startSize=50;horizontalStack=0;rounded=1;fontSize=14;fontStyle=0;strokeWidth=2;resizeParent=0;resizeLast=1;shadow=0;dashed=0;align=center;arcSize=4;whiteSpace=wrap;html=1;movable=1;resizable=1;rotatable=1;deletable=1;editable=1;locked=0;connectable=1;" parent="1" vertex="1">
          <mxGeometry x="46" y="375" width="135" height="240" as="geometry">
            <mxRectangle x="279" y="660" width="75" height="50" as="alternateBounds" />
          </mxGeometry>
        </mxCell>
        <mxCell id="L-Q6csGe15FDerK6c003-3" value="Ma&lt;br&gt;Ten" style="align=left;strokeColor=none;fillColor=none;spacingLeft=4;fontSize=12;verticalAlign=top;resizable=1;rotatable=1;part=1;html=1;movable=1;deletable=1;editable=1;locked=0;connectable=1;" parent="L-Q6csGe15FDerK6c003-2" vertex="1">
          <mxGeometry y="50" width="135" height="190" as="geometry" />
        </mxCell>
        <mxCell id="L-Q6csGe15FDerK6c003-4" value="" style="fontSize=12;html=1;endArrow=ERzeroToMany;startArrow=ERmandOne;rounded=0;movable=1;resizable=1;rotatable=1;deletable=1;editable=1;locked=0;connectable=1;exitX=1;exitY=0.5;exitDx=0;exitDy=0;" parent="1" source="L-Q6csGe15FDerK6c003-3" target="5fLzKJ9tMeXBeS_LBeBV-15" edge="1">
          <mxGeometry width="100" height="100" relative="1" as="geometry">
            <mxPoint x="225" y="-22" as="sourcePoint" />
            <mxPoint x="315" y="225" as="targetPoint" />
          </mxGeometry>
        </mxCell>
        <mxCell id="O7m6CrMyvTRqPq30U0Gk-1" value="Sanpham_hinh" style="swimlane;childLayout=stackLayout;horizontal=1;startSize=50;horizontalStack=0;rounded=1;fontSize=18;fontStyle=0;strokeWidth=2;resizeParent=0;resizeLast=1;shadow=0;dashed=0;align=center;arcSize=4;whiteSpace=wrap;html=1;movable=0;resizable=0;rotatable=0;deletable=0;editable=0;locked=1;connectable=0;" parent="1" vertex="1" collapsed="1">
          <mxGeometry x="532.82" y="-765" width="142.18" height="50" as="geometry">
            <mxRectangle x="300" y="225" width="135" height="180" as="alternateBounds" />
          </mxGeometry>
        </mxCell>
        <mxCell id="O7m6CrMyvTRqPq30U0Gk-2" value="id&lt;br&gt;name&lt;br&gt;price&lt;br&gt;thumbnail&lt;br&gt;desciption&lt;br&gt;created_at&lt;br&gt;updated_at&lt;br&gt;category_id" style="align=left;strokeColor=none;fillColor=none;spacingLeft=4;fontSize=12;verticalAlign=top;resizable=1;rotatable=1;part=1;html=1;movable=1;deletable=1;editable=1;locked=0;connectable=1;" parent="O7m6CrMyvTRqPq30U0Gk-1" vertex="1">
          <mxGeometry y="50" width="135" height="130" as="geometry" />
        </mxCell>
        <mxCell id="O7m6CrMyvTRqPq30U0Gk-3" value="Sanpham_hinh" style="swimlane;childLayout=stackLayout;horizontal=1;startSize=50;horizontalStack=0;rounded=1;fontSize=14;fontStyle=0;strokeWidth=2;resizeParent=0;resizeLast=1;shadow=0;dashed=0;align=center;arcSize=4;whiteSpace=wrap;html=1;movable=1;resizable=1;rotatable=1;deletable=1;editable=1;locked=0;connectable=1;" parent="1" vertex="1">
          <mxGeometry x="332.62" y="150" width="135" height="180" as="geometry">
            <mxRectangle x="300" y="225" width="105" height="50" as="alternateBounds" />
          </mxGeometry>
        </mxCell>
        <mxCell id="O7m6CrMyvTRqPq30U0Gk-4" value="Ma&lt;br&gt;Diachihinh" style="align=left;strokeColor=none;fillColor=none;spacingLeft=4;fontSize=12;verticalAlign=top;resizable=1;rotatable=1;part=1;html=1;movable=1;deletable=1;editable=1;locked=0;connectable=1;" parent="O7m6CrMyvTRqPq30U0Gk-3" vertex="1">
          <mxGeometry y="50" width="135" height="130" as="geometry" />
        </mxCell>
        <mxCell id="O7m6CrMyvTRqPq30U0Gk-6" value="" style="fontSize=12;html=1;endArrow=ERzeroToMany;startArrow=ERmandOne;rounded=0;exitX=0.5;exitY=1;exitDx=0;exitDy=0;movable=1;resizable=1;rotatable=1;deletable=1;editable=1;locked=0;connectable=1;" parent="1" source="5fLzKJ9tMeXBeS_LBeBV-11" target="O7m6CrMyvTRqPq30U0Gk-3" edge="1">
          <mxGeometry width="100" height="100" relative="1" as="geometry">
            <mxPoint x="474" y="-26" as="sourcePoint" />
            <mxPoint x="607" y="-29" as="targetPoint" />
          </mxGeometry>
        </mxCell>
        <mxCell id="O7m6CrMyvTRqPq30U0Gk-8" value="" style="fontSize=18;html=1;endArrow=ERoneToMany;rounded=0;movable=0;resizable=0;rotatable=0;deletable=0;editable=0;locked=1;connectable=0;entryX=0.5;entryY=1;entryDx=0;entryDy=0;" parent="1" source="z6DuVe3DVs5f5lUHX8h4-39" target="O7m6CrMyvTRqPq30U0Gk-1" edge="1">
          <mxGeometry width="100" height="100" relative="1" as="geometry">
            <mxPoint x="915" y="-544" as="sourcePoint" />
            <mxPoint x="665" y="-542" as="targetPoint" />
          </mxGeometry>
        </mxCell>
        <mxCell id="BaOJIcgz3wcPC0u5wsEv-3" value="Xem chi tiết&lt;br&gt;đơn hàng" style="ellipse;whiteSpace=wrap;html=1;fontSize=20;" vertex="1" parent="1">
          <mxGeometry x="259.12" y="1275" width="130.88" height="60" as="geometry" />
        </mxCell>
        <mxCell id="BaOJIcgz3wcPC0u5wsEv-4" value="" style="endArrow=open;endFill=1;endSize=12;html=1;rounded=0;" edge="1" parent="1" target="BaOJIcgz3wcPC0u5wsEv-3">
          <mxGeometry width="160" relative="1" as="geometry">
            <mxPoint x="105" y="1140" as="sourcePoint" />
            <mxPoint x="309" y="1226" as="targetPoint" />
          </mxGeometry>
        </mxCell>
      </root>
    </mxGraphModel>
  </diagram>
</mxfile>
